# xmcd CD database file
#
# Track frame offsets:
#	150
#	22336
#	44321
#	66496
#
# Disc length: 1177 seconds
#
# Revision: 1
# Processed by: cddbd v1.5.2PL0 Copyright (c) Steve Scherf et al.
# Submitted via: CDex 1.70beta2
#
DISCID=38049704
DTITLE=FUNKY MONKEY BABYS - ヒロー/明日へ
DYEAR=2009
DGENRE=J-POP
TTITLE0=ヒーロー
TTITLE1=明日へ
TTITLE2=ヒロー（Instrumentaru)
TTITLE3=明日へ（insutrumentaru)
EXTD=YEAR: 2009
EXTT0=
EXTT1=
EXTT2=
EXTT3=
PLAYORDER=
